<svg width="24" height="24" viewBox="0 0 24 24" fill="none" xmlns="http://www.w3.org/2000/svg">
<path d="M21.2833 15.189C19.8817 15.1915 18.4888 14.9697 17.1573 14.532C16.8446 14.4311 16.5109 14.4136 16.1893 14.4814C15.8678 14.5492 15.5695 14.6999 15.3242 14.9185L12.7219 16.8766C9.92196 15.4841 7.65232 13.2167 6.25698 10.4181L8.16406 7.88533C8.40754 7.64217 8.57924 7.33656 8.66026 7.00212C8.74128 6.66768 8.72849 6.31738 8.62329 5.98974C8.18412 4.6561 7.96126 3.26077 7.96314 1.85669C7.96264 1.36453 7.76695 0.892663 7.419 0.544595C7.07105 0.196527 6.59925 0.000675317 6.1071 0L1.85669 0C1.36442 0.000506536 0.892456 0.196284 0.54437 0.54437C0.196284 0.892456 0.000506536 1.36442 0 1.85669C0.0062464 7.49945 2.2506 12.9093 6.24064 16.8994C10.2307 20.8894 15.6405 23.1338 21.2833 23.14C21.7756 23.1395 22.2475 22.9437 22.5956 22.5956C22.9437 22.2475 23.1395 21.7756 23.14 21.2833V17.045C23.1393 16.5529 22.9435 16.0811 22.5954 15.7331C22.2473 15.3852 21.7755 15.1895 21.2833 15.189Z" fill="#00D1D1"/>
</svg>
