<svg width="19" height="13" viewBox="0 0 19 13" fill="none" xmlns="http://www.w3.org/2000/svg">
<path d="M18.1646 1.02244L17.5927 0.337544C17.5123 0.234198 17.4093 0.150583 17.2916 0.0930661C17.174 0.0355495 17.0447 0.00564839 16.9138 0.00564839C16.7828 0.00564839 16.6536 0.0355495 16.5359 0.0930661C16.4182 0.150583 16.3153 0.234198 16.2348 0.337544L9.67146 8.09892L3.11255 0.327876C3.03066 0.225274 2.92665 0.142498 2.80828 0.0857246C2.68992 0.0289511 2.56026 -0.00035427 2.42899 3.23198e-06C2.29771 0.000360734 2.16821 0.0303724 2.05016 0.0877897C1.93211 0.145207 1.82855 0.228551 1.74722 0.331598L1.17536 1.01277C0.993529 1.24125 0.894531 1.52464 0.894531 1.81664C0.894531 2.10865 0.993529 2.39204 1.17536 2.62052L8.994 11.9056C9.0744 12.012 9.17695 12.0997 9.29455 12.1626C9.41216 12.2256 9.54203 12.2622 9.67517 12.27C9.80794 12.2619 9.93737 12.2251 10.0546 12.1622C10.1718 12.0993 10.274 12.0118 10.3541 11.9056L18.1623 2.64506C18.3477 2.4154 18.4469 2.12812 18.4427 1.83301C18.4487 1.53868 18.3508 1.25165 18.1661 1.02244H18.1646Z" fill="#686868"/>
</svg>
