<svg width="21" height="21" viewBox="0 0 21 21" fill="none" xmlns="http://www.w3.org/2000/svg">
<g clip-path="url(#clip0)">
<path d="M16.5606 9.3926L15.638 8.3426C15.3832 8.0528 14.9422 8.0248 14.651 8.2782L11.9 10.689V0.7C11.9 0.3136 11.5864 0 11.2 0H9.79995C9.41355 0 9.09995 0.3136 9.09995 0.7V10.689L6.34895 8.2782C6.05915 8.0248 5.61815 8.0528 5.36195 8.3426L4.43935 9.3912C4.18315 9.6824 4.21255 10.1262 4.50375 10.381L10.0394 15.2264C10.304 15.4574 10.6974 15.4574 10.962 15.2264L16.4962 10.381C16.7874 10.1262 16.8168 9.6824 16.5606 9.3926Z" fill="#127AE5"/>
<path d="M18.2 18.2H2.79998C2.41358 18.2 2.09998 18.5136 2.09998 18.9V20.3C2.09998 20.6864 2.41358 21 2.79998 21H18.2C18.5864 21 18.9 20.6864 18.9 20.3V18.9C18.9 18.5136 18.5864 18.2 18.2 18.2Z" fill="#127AE5"/>
</g>
<defs>
<clipPath id="clip0">
<rect width="21" height="21" fill="white"/>
</clipPath>
</defs>
</svg>
