<svg width="20" height="20" viewBox="0 0 20 20" fill="none" xmlns="http://www.w3.org/2000/svg">
<path d="M18.6231 11.5908C18.4898 11.5908 18.362 11.6437 18.2677 11.738C18.1734 11.8323 18.1205 11.9601 18.1205 12.0934V16.5571C18.1203 16.957 17.9613 17.3404 17.6786 17.6232C17.3958 17.9059 17.0124 18.0649 16.6125 18.0651H2.51292C2.11388 18.0636 1.73168 17.9041 1.44996 17.6215C1.16825 17.3389 1.00996 16.9561 1.00975 16.5571V3.45925C1.00996 3.0602 1.16825 2.67749 1.44996 2.39487C1.73168 2.11225 2.11388 1.95274 2.51292 1.95125H6.97659C7.11049 1.95125 7.23891 1.89806 7.33359 1.80338C7.42828 1.70869 7.48147 1.58028 7.48147 1.44637C7.48147 1.31247 7.42828 1.18406 7.33359 1.08937C7.23891 0.99469 7.11049 0.941498 6.97659 0.941498H2.51292C2.18261 0.941815 1.85558 1.00719 1.55053 1.13389C1.24548 1.26059 0.968366 1.44613 0.73502 1.67993C0.501673 1.91372 0.316661 2.19119 0.190546 2.49649C0.0644314 2.80178 -0.000315846 3.12893 1.15843e-06 3.45925V16.5563C0.000639963 17.2226 0.265599 17.8614 0.736725 18.3325C1.20785 18.8036 1.84665 19.0686 2.51292 19.0692H16.6149C17.2812 19.0686 17.92 18.8036 18.3911 18.3325C18.8622 17.8614 19.1272 17.2226 19.1278 16.5563V12.089C19.1266 11.9561 19.0729 11.8291 18.9783 11.7357C18.8837 11.6423 18.756 11.5902 18.6231 11.5908Z" fill="#127AE5"/>
<path d="M7.8584 8.94672L15.1965 1.60861L17.5626 3.97476L10.2245 11.3129L7.8584 8.94672Z" fill="#127AE5"/>
<path d="M6.66211 12.5096L9.27597 11.7858L7.38595 9.89577L6.66211 12.5096Z" fill="#127AE5"/>
<path d="M18.217 0.368858C18.1003 0.251925 17.9616 0.159161 17.8089 0.0958689C17.6562 0.0325773 17.4926 0 17.3273 0C17.1621 0 16.9984 0.0325773 16.8458 0.0958689C16.6931 0.159161 16.5544 0.251925 16.4376 0.368858L15.9048 0.901683L18.2709 3.26903L18.8038 2.73621C19.0392 2.50044 19.1714 2.18088 19.1714 1.8477C19.1714 1.51452 19.0392 1.19496 18.8038 0.959188L18.217 0.368858Z" fill="#127AE5"/>
</svg>
