<svg width="24" height="16" viewBox="0 0 24 16" fill="none" xmlns="http://www.w3.org/2000/svg">
<path d="M15.3359 8.07164L23.1353 13.0024V2.93816L15.3359 8.07164Z" fill="#00D1D1"/>
<path d="M0 2.93816V13.0081L7.79937 8.07738L0 2.93816Z" fill="#00D1D1"/>
<path d="M21.6894 0H1.44622C1.10373 0.00295384 0.773692 0.128829 0.516221 0.354702C0.25875 0.580574 0.0909762 0.891415 0.043457 1.23061L11.5678 8.81829L23.0922 1.22742C23.0439 0.888809 22.8759 0.578722 22.6185 0.353495C22.3611 0.128268 22.0314 0.00284181 21.6894 0Z" fill="#00D1D1"/>
<path d="M14.0118 8.94453L11.9657 10.2925C11.8476 10.3702 11.7094 10.4116 11.5681 10.4116C11.4268 10.4116 11.2886 10.3702 11.1706 10.2925L9.12189 8.94327L0.043457 14.685C0.0925813 15.0226 0.261139 15.3314 0.518526 15.5554C0.775913 15.7793 1.10506 15.9035 1.44622 15.9054H21.6868C22.028 15.9035 22.3571 15.7793 22.6145 15.5554C22.8719 15.3314 23.0405 15.0226 23.0896 14.685L14.0118 8.94453Z" fill="#00D1D1"/>
</svg>
