<svg width="37" height="35" viewBox="0 0 37 35" fill="none" xmlns="http://www.w3.org/2000/svg">
<path d="M34.0414 20.7047H31.7838V30.1549L25.4212 23.7856C26.359 22.1244 26.6614 20.1791 26.2722 18.3116C25.8831 16.4441 24.8289 14.7816 23.3057 13.6331C21.7825 12.4847 19.8941 11.9286 17.9916 12.0683C16.0891 12.208 14.3021 13.0339 12.963 14.3925C11.6239 15.7511 10.8238 17.5498 10.7116 19.4541C10.5994 21.3584 11.1827 23.2387 12.353 24.7451C13.5233 26.2516 15.2009 27.2816 17.0738 27.6438C18.9468 28.0059 20.8875 27.6755 22.535 26.7139L29.981 34.1582C29.519 34.3829 29.0141 34.5057 28.5005 34.5183H8.6198C8.18087 34.5193 7.74606 34.4335 7.34034 34.266C6.93463 34.0985 6.566 33.8525 6.25562 33.5421C5.94525 33.2318 5.69924 32.8631 5.53173 32.4574C5.36421 32.0517 5.27849 31.6169 5.27949 31.178V20.7533H3.07472C2.44775 20.7545 1.83547 20.5635 1.32025 20.2063C0.805038 19.849 0.411596 19.3425 0.192854 18.7549C-0.025887 18.1673 -0.0594341 17.5269 0.0967259 16.9197C0.252886 16.3124 0.591262 15.7676 1.06633 15.3585L14.42 1.74629C14.9531 1.19397 15.592 0.754686 16.2985 0.454657C17.0051 0.154628 17.7648 0 18.5325 0C19.3001 0 20.0598 0.154628 20.7664 0.454657C21.4729 0.754686 22.1118 1.19397 22.6449 1.74629L25.6663 4.82475V2.15586C25.6685 1.87475 25.7264 1.59687 25.8368 1.33833C25.9471 1.07978 26.1077 0.845712 26.3092 0.649686C26.5107 0.45366 26.7491 0.299577 27.0106 0.196369C27.272 0.0931607 27.5514 0.0428802 27.8325 0.048442H29.6159C29.8935 0.0451784 30.1689 0.0974378 30.4259 0.202148C30.683 0.306857 30.9165 0.461904 31.1128 0.658172C31.309 0.854439 31.4641 1.08797 31.5688 1.34502C31.6735 1.60208 31.7258 1.87747 31.7225 2.15502V11.1008L35.9357 15.4156C36.4027 15.8096 36.7381 16.337 36.897 16.9271C37.0558 17.5172 37.0305 18.1417 36.8244 18.717C36.6183 19.2922 36.2413 19.7908 35.7439 20.1457C35.2465 20.5007 34.6524 20.6951 34.0414 20.703V20.7047ZM15.7645 17.1126C15.1532 17.7359 14.7767 18.5517 14.6991 19.4213C14.6215 20.2909 14.8476 21.1605 15.3388 21.8822C15.8301 22.6039 16.5562 23.1332 17.3937 23.3799C18.2311 23.6266 19.1282 23.5755 19.9323 23.2354C20.7364 22.8953 21.3977 22.2871 21.8039 21.5143C22.2101 20.7415 22.3361 19.8518 22.1603 18.9966C21.9845 18.1415 21.5179 17.3736 20.8398 16.8237C20.1617 16.2738 19.314 15.9758 18.441 15.9804C17.9422 15.983 17.4489 16.0844 16.9895 16.2787C16.5301 16.4731 16.1138 16.7565 15.7645 17.1126Z" fill="#127AE5"/>
</svg>
