<svg width="13" height="36" viewBox="0 0 13 36" fill="none" xmlns="http://www.w3.org/2000/svg">
<path d="M5.735 5.01473e-07C6.69707 0.000760284 7.62913 0.335037 8.3724 0.945889C9.11567 1.55674 9.62417 2.40638 9.81129 3.35008C9.99841 4.29379 9.85258 5.27317 9.39862 6.12141C8.94467 6.96966 8.21068 7.63428 7.32169 8.00208C6.43269 8.36988 5.44368 8.4181 4.52312 8.13852C3.60257 7.85894 2.80741 7.26887 2.27309 6.46881C1.73878 5.66875 1.49837 4.70819 1.5928 3.75076C1.68723 2.79333 2.11068 1.89826 2.791 1.218C3.17768 0.831586 3.6367 0.525133 4.14184 0.316146C4.64698 0.107159 5.18834 -0.000267839 5.735 5.01473e-07ZM9.523 10.937H2.475C1.81859 10.937 1.18906 11.1978 0.724911 11.6619C0.260758 12.1261 0 12.7556 0 13.412C0 14.0684 0.260758 14.6979 0.724911 15.1621C1.18906 15.6262 1.81859 15.887 2.475 15.887H2.719V30.316H0V35.272H12.237V30.316H9.537V10.937H9.523Z" fill="#127AE5"/>
</svg>
