<svg width="27" height="36" viewBox="0 0 27 36" fill="none" xmlns="http://www.w3.org/2000/svg">
<path d="M19.6351 8.26902H26.2631L18.6001 0.606018V7.23402C18.6001 7.50852 18.7091 7.77177 18.9032 7.96587C19.0973 8.15997 19.3606 8.26902 19.6351 8.26902Z" fill="#127AE5"/>
<path d="M3.1 35.272H23.768C24.1751 35.272 24.5782 35.1918 24.9543 35.036C25.3304 34.8802 25.6722 34.6519 25.96 34.364C26.2479 34.0762 26.4762 33.7344 26.632 33.3583C26.7878 32.9822 26.868 32.5791 26.868 32.172V10.335H19.635C18.8128 10.335 18.0243 10.0084 17.443 9.42703C16.8616 8.84567 16.535 8.05717 16.535 7.235V0H3.1C2.27783 0 1.48933 0.326606 0.907969 0.907969C0.326606 1.48933 0 2.27783 0 3.1L0 32.174C0 32.9962 0.326606 33.7847 0.907969 34.366C1.48933 34.9474 2.27783 35.274 3.1 35.274V35.272ZM9.3 16.6H19.635C19.8888 16.6274 20.1234 16.7477 20.2939 16.9376C20.4644 17.1275 20.5587 17.3738 20.5587 17.629C20.5587 17.8842 20.4644 18.1305 20.2939 18.3204C20.1234 18.5103 19.8888 18.6306 19.635 18.658H9.3C9.04625 18.6306 8.81158 18.5103 8.64109 18.3204C8.47059 18.1305 8.37628 17.8842 8.37628 17.629C8.37628 17.3738 8.47059 17.1275 8.64109 16.9376C8.81158 16.7477 9.04625 16.6274 9.3 16.6ZM9.3 20.733H19.635C19.8888 20.7604 20.1234 20.8807 20.2939 21.0706C20.4644 21.2605 20.5587 21.5068 20.5587 21.762C20.5587 22.0172 20.4644 22.2635 20.2939 22.4534C20.1234 22.6433 19.8888 22.7636 19.635 22.791H9.3C9.04625 22.7636 8.81158 22.6433 8.64109 22.4534C8.47059 22.2635 8.37628 22.0172 8.37628 21.762C8.37628 21.5068 8.47059 21.2605 8.64109 21.0706C8.81158 20.8807 9.04625 20.7604 9.3 20.733ZM9.3 24.866H19.635C19.8888 24.8934 20.1234 25.0137 20.2939 25.2036C20.4644 25.3935 20.5587 25.6398 20.5587 25.895C20.5587 26.1502 20.4644 26.3965 20.2939 26.5864C20.1234 26.7763 19.8888 26.8966 19.635 26.924H9.3C9.04625 26.8966 8.81158 26.7763 8.64109 26.5864C8.47059 26.3965 8.37628 26.1502 8.37628 25.895C8.37628 25.6398 8.47059 25.3935 8.64109 25.2036C8.81158 25.0137 9.04625 24.8934 9.3 24.866ZM5.167 16.6C5.3717 16.6 5.57181 16.6607 5.74202 16.7744C5.91222 16.8882 6.04488 17.0498 6.12322 17.2389C6.20155 17.428 6.22205 17.6361 6.18211 17.8369C6.14218 18.0377 6.0436 18.2221 5.89886 18.3669C5.75411 18.5116 5.56969 18.6102 5.36892 18.6501C5.16815 18.69 4.96004 18.6696 4.77092 18.5912C4.5818 18.5129 4.42016 18.3802 4.30643 18.21C4.1927 18.0398 4.132 17.8397 4.132 17.635C4.132 17.3605 4.24104 17.0972 4.43514 16.9031C4.62924 16.709 4.8925 16.6 5.167 16.6ZM5.167 20.733C5.3717 20.733 5.57181 20.7937 5.74202 20.9074C5.91222 21.0212 6.04488 21.1828 6.12322 21.3719C6.20155 21.561 6.22205 21.7691 6.18211 21.9699C6.14218 22.1707 6.0436 22.3551 5.89886 22.4999C5.75411 22.6446 5.56969 22.7432 5.36892 22.7831C5.16815 22.823 4.96004 22.8026 4.77092 22.7242C4.5818 22.6459 4.42016 22.5132 4.30643 22.343C4.1927 22.1728 4.132 21.9727 4.132 21.768C4.132 21.4935 4.24104 21.2302 4.43514 21.0361C4.62924 20.842 4.8925 20.733 5.167 20.733ZM5.167 24.866C5.37179 24.8658 5.57203 24.9264 5.74239 25.04C5.91275 25.1537 6.04556 25.3153 6.12402 25.5045C6.20248 25.6936 6.22306 25.9018 6.18316 26.1027C6.14326 26.3035 6.04466 26.488 5.89986 26.6329C5.75505 26.7777 5.57054 26.8763 5.36967 26.9162C5.16881 26.9561 4.96062 26.9355 4.77146 26.857C4.5823 26.7786 4.42066 26.6458 4.30701 26.4754C4.19336 26.305 4.1328 26.1048 4.133 25.9C4.133 25.6255 4.24204 25.3622 4.43614 25.1681C4.63024 24.974 4.8935 24.865 5.168 24.865L5.167 24.866Z" fill="#127AE5"/>
</svg>
