<svg width="33" height="36" viewBox="0 0 33 36" fill="none" xmlns="http://www.w3.org/2000/svg">
<path d="M14.7 35.272C15.9699 35.2704 17.2005 34.8309 18.1841 34.0278C19.1678 33.2246 19.8445 32.1069 20.1 30.863H9.30005C9.55564 32.1069 10.2323 33.2246 11.216 34.0278C12.1996 34.8309 13.4301 35.2704 14.7 35.272Z" fill="#127AE5"/>
<path d="M25.0009 17.639H24.983C23.2507 17.6431 21.5456 17.2085 20.0266 16.3758C18.5075 15.5432 17.2241 14.3395 16.2957 12.8769C15.3674 11.4144 14.8245 9.74067 14.7175 8.01171C14.6105 6.28274 14.943 4.55483 15.684 2.98903C15.361 2.96003 15.032 2.93903 14.701 2.93903C13.3498 2.93889 12.0119 3.2049 10.7636 3.72187C9.51528 4.23883 8.38102 4.99662 7.42559 5.95196C6.47015 6.9073 5.71226 8.04148 5.19517 9.28975C4.67809 10.538 4.41195 11.8759 4.41195 13.227V17.327C4.41174 18.7639 4.09738 20.1834 3.49089 21.486C2.8844 22.7887 2.00045 23.9429 0.900951 24.868C0.528686 25.1862 0.254989 25.604 0.112033 26.0724C-0.0309235 26.5408 -0.0371967 27.0402 0.0939507 27.512C0.271175 28.0694 0.624601 28.5542 1.10106 28.8934C1.57753 29.2326 2.15126 29.408 2.73595 29.393H26.656C27.2689 29.4086 27.8689 29.2151 28.3573 28.8444C28.8456 28.4736 29.1933 27.9476 29.3429 27.353C29.4395 26.8931 29.4084 26.4155 29.2529 25.972C29.0975 25.5285 28.8236 25.136 28.4609 24.837C27.4102 23.9483 26.5589 22.8477 25.9626 21.6073C25.3664 20.367 25.0387 19.0147 25.0009 17.639Z" fill="#127AE5"/>
<path d="M32.3389 7.348C32.3389 8.80113 31.9081 10.2216 31.1009 11.4299C30.2936 12.6382 29.1463 13.58 27.8038 14.1363C26.4614 14.6926 24.9842 14.8383 23.5589 14.5551C22.1336 14.2719 20.8243 13.5725 19.7965 12.5452C18.7687 11.518 18.0686 10.2091 17.7846 8.78397C17.5006 7.35887 17.6456 5.88155 18.2011 4.53881C18.7567 3.19607 19.6979 2.0482 20.9057 1.24031C22.1136 0.432417 23.5338 0.000792121 24.9869 1.08883e-06C25.9522 -0.000524382 26.9082 0.18915 27.8001 0.558186C28.6921 0.927222 29.5026 1.46839 30.1854 2.15077C30.8681 2.83314 31.4097 3.64336 31.7792 4.53512C32.1488 5.42688 32.3389 6.38271 32.3389 7.348Z" fill="#01CFD2"/>
</svg>
