<svg width="30" height="31" viewBox="0 0 30 31" fill="none" xmlns="http://www.w3.org/2000/svg">
<path d="M24.7757 5.81213V4.40313C24.7757 1.97524 22.8004 0 20.3725 0H9.57018C7.1423 0 5.16705 1.97524 5.16705 4.40313V5.81213H24.7757Z" fill="#00D1D1"/>
<path d="M6.92761 18.728V25.8904V27.4168V28.2975C6.92761 29.2701 7.71613 30.0587 8.68886 30.0587H21.2525C22.2252 30.0587 23.0137 29.2701 23.0137 28.2975V27.4168V25.8904V18.728H6.92761ZM17.319 26.2427H12.6223C12.136 26.2427 11.7417 25.8484 11.7417 25.362C11.7417 24.8757 12.136 24.4814 12.6223 24.4814H17.319C17.8053 24.4814 18.1996 24.8757 18.1996 25.362C18.1996 25.8484 17.8053 26.2427 17.319 26.2427ZM17.319 22.4853H12.6223C12.136 22.4853 11.7417 22.091 11.7417 21.6047C11.7417 21.1184 12.136 20.7241 12.6223 20.7241H17.319C17.8053 20.7241 18.1996 21.1184 18.1996 21.6047C18.1996 22.091 17.8053 22.4853 17.319 22.4853Z" fill="#00D1D1"/>
<path d="M25.5969 7.57338H4.40313C1.97524 7.57338 0 9.54862 0 11.9765V19.0215C0 21.4494 1.97524 23.4247 4.40313 23.4247H5.16634V18.728H4.63796C4.15162 18.728 3.75734 18.3337 3.75734 17.8474C3.75734 17.361 4.15162 16.9667 4.63796 16.9667H6.04697H23.8943H25.3033C25.7897 16.9667 26.184 17.361 26.184 17.8474C26.184 18.3337 25.7897 18.728 25.3033 18.728H24.775V23.4247H25.5969C28.0248 23.4247 30 21.4494 30 19.0215V11.9765C30 9.54862 28.0248 7.57338 25.5969 7.57338ZM7.45597 13.092H4.63796C4.15162 13.092 3.75734 12.6977 3.75734 12.2113C3.75734 11.725 4.15162 11.3307 4.63796 11.3307H7.45597C7.94231 11.3307 8.33659 11.725 8.33659 12.2113C8.33659 12.6977 7.94231 13.092 7.45597 13.092Z" fill="#00D1D1"/>
</svg>
