<svg id="Capa_1" enable-background="new 0 0 512 512" height="512" viewBox="0 0 512 512" width="512" xmlns="http://www.w3.org/2000/svg"><g><g><path d="m484.3 31.32h-376.47c-4.142 0-7.5 3.357-7.5 7.5s3.358 7.5 7.5 7.5h376.47c7.003 0 12.7 5.697 12.7 12.699v55.131h-482v-55.13c0-7.002 5.697-12.699 12.7-12.699h45.13c4.142 0 7.5-3.357 7.5-7.5s-3.358-7.5-7.5-7.5h-45.13c-15.274-.001-27.7 12.425-27.7 27.699v308.2c0 4.143 3.358 7.5 7.5 7.5s7.5-3.357 7.5-7.5v-238.07h482v26.189c0 4.143 3.358 7.5 7.5 7.5s7.5-3.357 7.5-7.5v-96.319c0-15.274-12.426-27.7-27.7-27.7z"/><circle cx="438.839" cy="80.232" r="12.122"/><circle cx="397.423" cy="80.232" r="12.122"/><circle cx="356.006" cy="80.232" r="12.122"/><path d="m504.5 182.84c-4.142 0-7.5 3.357-7.5 7.5v262.64c0 7.002-5.697 12.699-12.7 12.699h-456.6c-7.003 0-12.7-5.697-12.7-12.699v-50.76c0-4.143-3.358-7.5-7.5-7.5s-7.5 3.357-7.5 7.5v50.761c0 15.273 12.426 27.699 27.7 27.699h456.6c15.274 0 27.7-12.426 27.7-27.699v-262.641c0-4.143-3.358-7.5-7.5-7.5z"/><path d="m70.13 224.104h165.667c4.142 0 7.5-3.357 7.5-7.5s-3.358-7.5-7.5-7.5h-165.667c-4.142 0-7.5 3.357-7.5 7.5s3.358 7.5 7.5 7.5z"/><path d="m332.772 176.778h-186.88c-4.142 0-7.5 3.357-7.5 7.5s3.358 7.5 7.5 7.5h186.88c4.142 0 7.5-3.357 7.5-7.5s-3.357-7.5-7.5-7.5z"/><path d="m70.13 191.778h40.407c4.142 0 7.5-3.357 7.5-7.5s-3.358-7.5-7.5-7.5h-40.407c-4.142 0-7.5 3.357-7.5 7.5s3.358 7.5 7.5 7.5z"/><path d="m86.292 288.754c13.047 0 23.663-10.615 23.663-23.662 0-13.048-10.615-23.663-23.663-23.663s-23.662 10.615-23.662 23.663c0 13.047 10.615 23.662 23.662 23.662zm0-32.325c4.776 0 8.663 3.887 8.663 8.663s-3.886 8.662-8.663 8.662-8.663-3.886-8.663-8.662 3.887-8.663 8.663-8.663z"/><path d="m174.605 265.092c0-13.048-10.615-23.663-23.663-23.663s-23.663 10.615-23.663 23.663c0 13.047 10.615 23.662 23.663 23.662s23.663-10.615 23.663-23.662zm-32.325 0c0-4.776 3.886-8.663 8.663-8.663s8.663 3.887 8.663 8.663-3.886 8.662-8.663 8.662-8.663-3.886-8.663-8.662z"/><path d="m239.256 265.092c0-13.048-10.615-23.663-23.663-23.663s-23.663 10.615-23.663 23.663c0 13.047 10.615 23.662 23.663 23.662s23.663-10.615 23.663-23.662zm-32.325 0c0-4.776 3.886-8.663 8.663-8.663s8.663 3.887 8.663 8.663-3.886 8.662-8.663 8.662-8.663-3.886-8.663-8.662z"/><path d="m303.907 265.092c0-13.048-10.615-23.663-23.663-23.663s-23.663 10.615-23.663 23.663c0 13.047 10.615 23.662 23.663 23.662s23.663-10.615 23.663-23.662zm-32.325 0c0-4.776 3.886-8.663 8.663-8.663s8.663 3.887 8.663 8.663-3.886 8.662-8.663 8.662-8.663-3.886-8.663-8.662z"/><path d="m70.13 353.404h165.667c4.142 0 7.5-3.357 7.5-7.5s-3.358-7.5-7.5-7.5h-165.667c-4.142 0-7.5 3.357-7.5 7.5s3.358 7.5 7.5 7.5z"/><path d="m340.272 313.579c0-4.143-3.358-7.5-7.5-7.5h-186.88c-4.142 0-7.5 3.357-7.5 7.5s3.358 7.5 7.5 7.5h186.88c4.143 0 7.5-3.357 7.5-7.5z"/><path d="m70.13 321.079h40.407c4.142 0 7.5-3.357 7.5-7.5s-3.358-7.5-7.5-7.5h-40.407c-4.142 0-7.5 3.357-7.5 7.5s3.358 7.5 7.5 7.5z"/><path d="m86.292 418.055c13.047 0 23.663-10.615 23.663-23.662 0-13.048-10.615-23.663-23.663-23.663s-23.662 10.615-23.662 23.663c0 13.046 10.615 23.662 23.662 23.662zm0-32.326c4.776 0 8.663 3.887 8.663 8.663s-3.886 8.662-8.663 8.662-8.663-3.886-8.663-8.662 3.887-8.663 8.663-8.663z"/><path d="m127.28 394.393c0 13.047 10.615 23.662 23.663 23.662s23.663-10.615 23.663-23.662c0-13.048-10.615-23.663-23.663-23.663s-23.663 10.615-23.663 23.663zm32.325 0c0 4.776-3.886 8.662-8.663 8.662s-8.663-3.886-8.663-8.662 3.886-8.663 8.663-8.663 8.663 3.886 8.663 8.663z"/><path d="m215.593 370.729c-13.047 0-23.663 10.615-23.663 23.663 0 13.047 10.615 23.662 23.663 23.662s23.663-10.615 23.663-23.662-10.615-23.663-23.663-23.663zm0 32.326c-4.776 0-8.663-3.886-8.663-8.662s3.886-8.663 8.663-8.663 8.663 3.887 8.663 8.663-3.886 8.662-8.663 8.662z"/><path d="m256.582 394.393c0 13.047 10.615 23.662 23.663 23.662s23.663-10.615 23.663-23.662c0-13.048-10.615-23.663-23.663-23.663s-23.663 10.615-23.663 23.663zm32.325 0c0 4.776-3.886 8.662-8.663 8.662s-8.663-3.886-8.663-8.662 3.886-8.663 8.663-8.663 8.663 3.886 8.663 8.663z"/><path d="m449.37 400.25v-246.276c0-4.143-3.358-7.5-7.5-7.5h-40.407c-4.142 0-7.5 3.357-7.5 7.5v246.276c0 10.195 3.342 20.322 9.411 28.515l12.266 16.559c1.415 1.91 3.65 3.036 6.027 3.036s4.612-1.126 6.027-3.036l12.266-16.559v.001c6.068-8.194 9.41-18.321 9.41-28.516zm-40.407-202.41h25.407v17.325h-25.407zm25.407-36.366v21.366h-25.407v-21.366zm-6.464 258.362-6.239 8.423-6.239-8.422c-4.168-5.628-6.464-12.584-6.464-19.587v-170.085h25.407v170.085c-.001 7.003-2.297 13.959-6.465 19.586z"/></g></g></svg>