<svg width="19" height="17" viewBox="0 0 19 17" fill="none" xmlns="http://www.w3.org/2000/svg">
<path d="M18.4351 7.68325C17.29 4.82805 14.1981 3.40045 9.15941 3.40045H6.78422V0.67997C6.78497 0.545447 6.74567 0.413758 6.67136 0.301743C6.59705 0.189728 6.4911 0.102478 6.36706 0.0511522C6.24302 -0.000173857 6.10653 -0.0132438 5.97504 0.0136137C5.84355 0.0404712 5.72303 0.106036 5.62891 0.201923L0.20139 5.64289C0.137655 5.7051 0.0869984 5.77949 0.0524094 5.86165C0.0178204 5.94381 0 6.03208 0 6.12126C0 6.21044 0.0178204 6.29872 0.0524094 6.38088C0.0869984 6.46304 0.137655 6.53742 0.20139 6.59963L5.62891 12.0406C5.72369 12.1345 5.84394 12.1983 5.97468 12.2242C6.10542 12.25 6.24084 12.2366 6.36406 12.1858C6.48728 12.1349 6.59283 12.0488 6.66755 11.9382C6.74227 11.8276 6.78285 11.6974 6.78422 11.5639V8.84338H9.15876C9.85112 8.84338 10.4713 8.86518 11.0193 8.90878C11.567 8.95152 12.1117 9.02796 12.6501 9.13766C13.1369 9.22993 13.6106 9.38169 14.0605 9.58955C14.4649 9.78202 14.8416 10.0282 15.1806 10.3213C15.5273 10.6231 15.8149 10.987 16.0286 11.3945C16.2654 11.8595 16.4384 12.3544 16.5427 12.8659C16.6727 13.4985 16.7348 14.1433 16.7279 14.7892C16.7279 15.179 16.7103 15.6149 16.6751 16.0971C16.671 16.1808 16.6621 16.2643 16.6484 16.3469C16.6334 16.44 16.6245 16.5339 16.6216 16.6281C16.6183 16.7247 16.6503 16.8191 16.7116 16.8937C16.7425 16.9291 16.7809 16.957 16.8241 16.9753C16.8672 16.9937 16.914 17.002 16.9608 16.9996C17.0214 16.9968 17.0804 16.9789 17.1322 16.9473C17.1841 16.9158 17.2272 16.8717 17.2576 16.8191C17.3121 16.7465 17.3583 16.6679 17.3953 16.585C17.4388 16.493 17.4864 16.3868 17.5382 16.2665C17.591 16.1462 17.6282 16.0612 17.6497 16.0115C18.4081 14.518 18.8657 12.8893 18.9962 11.2186C19.0301 10.0154 18.8398 8.81647 18.4351 7.68325Z" fill="#127AE5"/>
</svg>
