<svg width="187" height="52" viewBox="0 0 187 52" fill="none" xmlns="http://www.w3.org/2000/svg">
<g clip-path="url(#clip0)">
<mask id="mask0" mask-type="alpha" maskUnits="userSpaceOnUse" x="-1" y="0" width="52" height="52">
<path d="M35.1338 1.37396H45.7667C47.6461 1.37396 49.1748 2.99337 49.1748 4.98514V15.6958C49.7052 15.4354 50.0757 14.8696 50.0835 14.2096L50.2001 4.13385C50.2241 2.06978 48.658 0.36883 46.7082 0.34328L36.6479 0.212814C36.6416 0.212814 36.6348 0.212814 36.6286 0.212814C35.9296 0.212814 35.3342 0.699343 35.1338 1.37396ZM3.5354 0.29055C1.58568 0.29055 -0.000229061 1.97084 -0.000229061 4.03546V14.1112C-0.000229061 14.8081 0.405225 15.405 0.979836 15.6513V4.98514C0.979836 2.99337 2.50849 1.37396 4.38794 1.37396H14.5191C14.2979 0.741744 13.7233 0.29055 13.0493 0.29055H3.5354ZM35.1338 1.37396H14.5191H4.38794C2.50849 1.37396 0.979836 2.99337 0.979836 4.98514V15.6513V26.8979H1.02512H2.15456V26.2755V15.6513V4.98514C2.15456 3.67994 3.15649 2.61936 4.38794 2.61936H14.4837H35.229H45.7667C46.9976 2.61936 47.9995 3.67994 47.9995 4.98514V15.7567V26.8979H48.0453H49.1748V26.2755V15.6958V4.98514C49.1748 2.99337 47.6461 1.37396 45.7667 1.37396H35.1338ZM35.229 2.61936C35.4841 3.15482 36.0051 3.52501 36.6104 3.53262L46.6697 3.66363C46.8873 3.66635 47.0684 3.86368 47.0658 4.09363L46.9487 14.1688C46.9409 14.9011 47.3807 15.5284 47.9995 15.7567V4.98514C47.9995 3.67994 46.9976 2.61936 45.7667 2.61936H35.229ZM4.38794 2.61936C3.15649 2.61936 2.15456 3.67994 2.15456 4.98514V15.6513C2.72865 15.405 3.13411 14.8081 3.13411 14.1112V4.03546C3.13411 3.80551 3.31836 3.61036 3.5354 3.61036H13.0493C13.69 3.61036 14.2406 3.2032 14.4837 2.61936H4.38794ZM9.04677 6.66C7.37446 6.66 6.01445 8.10164 6.01445 9.87217V17.3707C6.01445 18.1665 6.54273 18.8314 7.24851 18.9928V26.8517H7.29483V33.1962C6.58958 33.3582 6.06025 34.023 6.06025 34.8188V42.3185C6.06025 44.0884 7.42078 45.5295 9.09257 45.5295H16.5786C17.3297 45.5295 17.9579 44.9696 18.1104 44.2222H32.5433C32.6959 44.9696 33.3235 45.5295 34.0751 45.5295H41.1542C42.826 45.5295 44.186 44.0884 44.186 42.3185V34.8188C44.186 34.0236 43.6577 33.3587 42.9524 33.1967V25.3378H42.9061V18.9934C43.6108 18.8319 44.1397 18.1665 44.1397 17.3707V9.87217C44.1397 8.10164 42.7796 6.66054 41.1079 6.66054H33.6218C32.8702 6.66054 32.2425 7.22045 32.09 7.96846H17.6571C17.5046 7.22045 16.8769 6.66 16.1253 6.66H9.04677ZM32.3003 9.21332C32.5787 9.67484 33.0664 9.98035 33.6218 9.98035H41.0053V17.3707C41.0053 17.9589 41.2942 18.4758 41.7298 18.771V26.8517H41.7762V33.4196C41.3405 33.7142 41.0511 34.2307 41.0511 34.8188V42.2092H34.0751C33.5198 42.2092 33.0321 42.5152 32.7536 42.9762H17.9001C17.6217 42.5152 17.134 42.2092 16.5786 42.2092H9.1951V34.8188C9.1951 34.2312 8.90624 33.7142 8.47059 33.4191V25.3378H8.42427V18.7705C8.85991 18.4758 9.14878 17.9589 9.14878 17.3707V9.98035H16.1253C16.6807 9.98035 17.1683 9.67484 17.4468 9.21332H32.3003ZM30.6842 13.03C29.8186 13.03 29.1175 13.7736 29.1175 14.6907C29.1175 15.6072 29.8186 16.3509 30.6842 16.3509H34.9917V20.6296C34.9917 21.5461 35.6933 22.2892 36.5594 22.2892C37.4244 22.2892 38.126 21.5461 38.126 20.6296V15.7089C38.126 14.2324 36.9924 13.03 35.5975 13.03H30.6842ZM14.5566 13.0305C13.1622 13.0305 12.0281 14.2314 12.0281 15.7094V20.6296C12.0281 21.5461 12.7297 22.2898 13.5958 22.2898C14.4608 22.2898 15.1624 21.5461 15.1624 20.6296V16.3503H19.2029C20.0685 16.3503 20.7701 15.6072 20.7701 14.6907C20.7701 13.7736 20.0685 13.0305 19.2029 13.0305H14.5566ZM49.1748 26.2755V26.8979H48.0453V35.9631C47.4713 36.2094 47.0658 36.8057 47.0658 37.5021V47.5784C47.0658 47.8083 46.8826 48.0029 46.665 48.0029H37.1512C36.4673 48.0029 35.8859 48.4672 35.672 49.1146H15.0229C14.7924 48.515 14.2401 48.0894 13.5911 48.0812L3.53071 47.9502C3.31367 47.947 3.1315 47.7502 3.13463 47.5202L3.25121 37.445C3.25954 36.7128 2.81974 36.0855 2.20088 35.8566V26.2755H2.15456V26.8979H1.02512V35.918C0.495269 36.179 0.124686 36.7438 0.116879 37.4037L2.06134e-05 47.4795C-0.0236507 49.5441 1.543 51.2445 3.4922 51.27L13.552 51.4006C14.2438 51.4103 14.8371 50.9422 15.0521 50.2856H35.698C35.9306 50.8939 36.4938 51.3228 37.1512 51.3228H46.665C48.6142 51.3228 50.2007 49.643 50.2007 47.5784V37.5021C50.2007 36.8057 49.7952 36.2094 49.2206 35.9631V26.2755H49.1748ZM35.0375 31.5605V35.8397H30.998C30.132 35.8397 29.4304 36.5823 29.4304 37.4994C29.4304 38.4159 30.132 39.1595 30.998 39.1595H35.6439C37.0377 39.1595 38.1723 37.9582 38.1723 36.4812V31.5605C38.1723 30.6434 37.4707 29.9003 36.6052 29.9003C35.7396 29.9003 35.0375 30.6434 35.0375 31.5605ZM12.0739 31.5605V36.4812C12.0739 37.9576 13.208 39.1595 14.6029 39.1595H19.5157C20.3813 39.1595 21.0829 38.4159 21.0829 37.4999C21.0829 36.5829 20.3813 35.8392 19.5157 35.8392H15.2087V31.5605C15.2087 30.6434 14.5071 29.9003 13.641 29.9003C12.7765 29.9003 12.0739 30.6434 12.0739 31.5605Z" fill="white"/>
</mask>
<g mask="url(#mask0)">
<path fill-rule="evenodd" clip-rule="evenodd" d="M35.1338 1.37396H45.7667C47.6461 1.37396 49.1748 2.99337 49.1748 4.98514V15.6958C49.7052 15.4354 50.0757 14.8696 50.0835 14.2096L50.2001 4.13385C50.2241 2.06978 48.658 0.36883 46.7082 0.34328L36.6479 0.212814C36.6416 0.212814 36.6348 0.212814 36.6286 0.212814C35.9296 0.212814 35.3342 0.699343 35.1338 1.37396ZM3.5354 0.29055C1.58568 0.29055 -0.000229061 1.97084 -0.000229061 4.03546V14.1112C-0.000229061 14.8081 0.405225 15.405 0.979836 15.6513V4.98514C0.979836 2.99337 2.50849 1.37396 4.38794 1.37396H14.5191C14.2979 0.741744 13.7233 0.29055 13.0493 0.29055H3.5354ZM35.1338 1.37396H14.5191H4.38794C2.50849 1.37396 0.979836 2.99337 0.979836 4.98514V15.6513V26.8979H1.02512H2.15456V26.2755V15.6513V4.98514C2.15456 3.67994 3.15649 2.61936 4.38794 2.61936H14.4837H35.229H45.7667C46.9976 2.61936 47.9995 3.67994 47.9995 4.98514V15.7567V26.8979H48.0453H49.1748V26.2755V15.6958V4.98514C49.1748 2.99337 47.6461 1.37396 45.7667 1.37396H35.1338ZM35.229 2.61936C35.4841 3.15482 36.0051 3.52501 36.6104 3.53262L46.6697 3.66363C46.8873 3.66635 47.0684 3.86368 47.0658 4.09363L46.9487 14.1688C46.9409 14.9011 47.3807 15.5284 47.9995 15.7567V4.98514C47.9995 3.67994 46.9976 2.61936 45.7667 2.61936H35.229ZM4.38794 2.61936C3.15649 2.61936 2.15456 3.67994 2.15456 4.98514V15.6513C2.72865 15.405 3.13411 14.8081 3.13411 14.1112V4.03546C3.13411 3.80551 3.31836 3.61036 3.5354 3.61036H13.0493C13.69 3.61036 14.2406 3.2032 14.4837 2.61936H4.38794ZM9.04677 6.66C7.37446 6.66 6.01445 8.10164 6.01445 9.87217V17.3707C6.01445 18.1665 6.54273 18.8314 7.24851 18.9928V26.8517H7.29483V33.1962C6.58958 33.3582 6.06025 34.023 6.06025 34.8188V42.3185C6.06025 44.0884 7.42078 45.5295 9.09257 45.5295H16.5786C17.3297 45.5295 17.9579 44.9696 18.1104 44.2222H32.5433C32.6959 44.9696 33.3235 45.5295 34.0751 45.5295H41.1542C42.826 45.5295 44.186 44.0884 44.186 42.3185V34.8188C44.186 34.0236 43.6577 33.3587 42.9524 33.1967V25.3378H42.9061V18.9934C43.6108 18.8319 44.1397 18.1665 44.1397 17.3707V9.87217C44.1397 8.10164 42.7796 6.66054 41.1079 6.66054H33.6218C32.8702 6.66054 32.2425 7.22045 32.09 7.96846H17.6571C17.5046 7.22045 16.8769 6.66 16.1253 6.66H9.04677ZM32.3003 9.21332C32.5787 9.67484 33.0664 9.98035 33.6218 9.98035H41.0053V17.3707C41.0053 17.9589 41.2942 18.4758 41.7298 18.771V26.8517H41.7762V33.4196C41.3405 33.7142 41.0511 34.2307 41.0511 34.8188V42.2092H34.0751C33.5198 42.2092 33.0321 42.5152 32.7536 42.9762H17.9001C17.6217 42.5152 17.134 42.2092 16.5786 42.2092H9.1951V34.8188C9.1951 34.2312 8.90624 33.7142 8.47059 33.4191V25.3378H8.42427V18.7705C8.85991 18.4758 9.14878 17.9589 9.14878 17.3707V9.98035H16.1253C16.6807 9.98035 17.1683 9.67484 17.4468 9.21332H32.3003ZM30.6842 13.03C29.8186 13.03 29.1175 13.7736 29.1175 14.6907C29.1175 15.6072 29.8186 16.3509 30.6842 16.3509H34.9917V20.6296C34.9917 21.5461 35.6933 22.2892 36.5594 22.2892C37.4244 22.2892 38.126 21.5461 38.126 20.6296V15.7089C38.126 14.2324 36.9924 13.03 35.5975 13.03H30.6842ZM14.5566 13.0305C13.1622 13.0305 12.0281 14.2314 12.0281 15.7094V20.6296C12.0281 21.5461 12.7297 22.2898 13.5958 22.2898C14.4608 22.2898 15.1624 21.5461 15.1624 20.6296V16.3503H19.2029C20.0685 16.3503 20.7701 15.6072 20.7701 14.6907C20.7701 13.7736 20.0685 13.0305 19.2029 13.0305H14.5566ZM49.1748 26.2755V26.8979H48.0453V35.9631C47.4713 36.2094 47.0658 36.8057 47.0658 37.5021V47.5784C47.0658 47.8083 46.8826 48.0029 46.665 48.0029H37.1512C36.4673 48.0029 35.8859 48.4672 35.672 49.1146H15.0229C14.7924 48.515 14.2401 48.0894 13.5911 48.0812L3.53071 47.9502C3.31367 47.947 3.1315 47.7502 3.13463 47.5202L3.25121 37.445C3.25954 36.7128 2.81974 36.0855 2.20088 35.8566V26.2755H2.15456V26.8979H1.02512V35.918C0.495269 36.179 0.124686 36.7438 0.116879 37.4037L2.06134e-05 47.4795C-0.0236507 49.5441 1.543 51.2445 3.4922 51.27L13.552 51.4006C14.2438 51.4103 14.8371 50.9422 15.0521 50.2856H35.698C35.9306 50.8939 36.4938 51.3228 37.1512 51.3228H46.665C48.6142 51.3228 50.2007 49.643 50.2007 47.5784V37.5021C50.2007 36.8057 49.7952 36.2094 49.2206 35.9631V26.2755H49.1748ZM35.0375 31.5605V35.8397H30.998C30.132 35.8397 29.4304 36.5823 29.4304 37.4994C29.4304 38.4159 30.132 39.1595 30.998 39.1595H35.6439C37.0377 39.1595 38.1723 37.9582 38.1723 36.4812V31.5605C38.1723 30.6434 37.4707 29.9003 36.6052 29.9003C35.7396 29.9003 35.0375 30.6434 35.0375 31.5605ZM12.0739 31.5605V36.4812C12.0739 37.9576 13.208 39.1595 14.6029 39.1595H19.5157C20.3813 39.1595 21.0829 38.4159 21.0829 37.4999C21.0829 36.5829 20.3813 35.8392 19.5157 35.8392H15.2087V31.5605C15.2087 30.6434 14.5071 29.9003 13.641 29.9003C12.7765 29.9003 12.0739 30.6434 12.0739 31.5605Z" fill="url(#paint0_linear)"/>
</g>
<mask id="mask1" mask-type="alpha" maskUnits="userSpaceOnUse" x="61" y="0" width="123" height="37">
<path d="M165.81 0.294449L165.239 1.59021L151.742 33.975L150.495 36.9969H155.012L155.583 35.7017L167.159 7.90493L178.736 35.7017L179.307 36.9969H183.823L182.577 33.975L169.079 1.59021L168.508 0.294449H165.81ZM134.922 0.294449C130.769 0.294449 127.203 1.98657 124.228 5.36864C121.009 8.96677 119.4 13.3928 119.4 18.6457C119.4 23.8634 120.992 28.2716 124.176 31.8697C127.187 35.2528 130.769 36.9618 134.922 36.9969C138.659 36.9969 142.086 35.6297 145.201 32.8947C146.48 31.7441 147.485 30.5203 148.211 29.2246L144.577 27.0657C143.469 29.1174 141.67 30.6822 139.178 31.7614C137.759 32.3738 136.34 32.6792 134.922 32.6792C131.565 32.6792 128.761 31.1501 126.513 28.0913C124.54 25.3573 123.553 22.2075 123.553 18.6457C123.553 14.5077 124.799 11.0358 127.291 8.22928C129.471 5.85381 132.015 4.64902 134.922 4.61274C137.759 4.61274 140.285 5.62043 142.501 7.63527C143.366 8.46374 144.007 9.30844 144.422 10.1716L148.16 8.22928C146.913 5.71086 144.803 3.65974 141.827 2.07591C139.542 0.887909 137.24 0.294449 134.922 0.294449ZM102.789 0.294449C99.0505 0.294449 96.0403 1.59021 93.7561 4.18118C92.0953 6.08827 91.2636 8.21141 91.2636 10.5501C91.2636 13.7524 93.3577 16.4332 97.5464 18.5921C98.3412 18.9885 100.782 20.014 104.866 21.6682C108.221 23.036 110.194 24.3318 110.784 25.555C110.991 25.9508 111.095 26.3466 111.095 26.7419C111.095 28.721 109.969 30.3043 107.72 31.4917C106.197 32.2839 104.555 32.6792 102.789 32.6792C99.9853 32.6792 97.736 31.8518 96.0403 30.1965C95.0357 29.1525 94.5165 28.0019 94.4831 26.7419H90.3303C90.3303 29.5489 91.5584 31.978 94.0155 34.0286C96.4725 36.0077 99.3963 36.9969 102.789 36.9969C106.7 36.9969 109.918 35.7017 112.445 33.1108C114.278 31.1679 115.213 29.0453 115.248 26.7419C115.248 23.5038 113.153 20.7872 108.967 18.5921C108.136 18.1963 105.661 17.1534 101.543 15.4613C98.2203 14.1309 96.2642 12.8703 95.6768 11.6828C95.5034 11.2875 95.4164 10.9101 95.4164 10.5501C95.4164 8.46374 96.4726 6.84417 98.5844 5.69191C99.8983 4.97228 101.301 4.61274 102.789 4.61274C105.349 4.61274 107.374 5.45853 108.862 7.14957C109.727 8.15726 110.161 9.29057 110.161 10.5501H114.313C114.313 7.5638 113.067 5.0443 110.576 2.99318C108.36 1.19439 105.765 0.294449 102.789 0.294449ZM73.7187 0.294449C69.9799 0.294449 66.9697 1.59021 64.6855 4.18118C63.0242 6.08827 62.1935 8.21141 62.1935 10.5501C62.1935 13.7524 64.2866 16.4332 68.4753 18.5921C69.2706 18.9885 71.711 20.014 75.7951 21.6682C79.151 23.036 81.1238 24.3318 81.7128 25.555C81.9196 25.9508 82.0242 26.3466 82.0242 26.7419C82.0242 28.721 80.8988 30.3043 78.6495 31.4917C77.1262 32.2839 75.4836 32.6792 73.7187 32.6792C70.9152 32.6792 68.6649 31.8518 66.9697 30.1965C65.9651 29.1525 65.4459 28.0019 65.4126 26.7419H61.2598C61.2598 29.5489 62.4873 31.978 64.9449 34.0286C67.4015 36.0077 70.3257 36.9969 73.7187 36.9969C77.6288 36.9969 80.8472 35.7017 83.3741 33.1108C85.2078 31.1679 86.1416 29.0453 86.1775 26.7419C86.1775 23.5038 84.0824 20.7872 79.8963 18.5921C79.0646 18.1963 76.5908 17.1534 72.4719 15.4613C69.1492 14.1309 67.1942 12.8703 66.6057 11.6828C66.4323 11.2875 66.3463 10.9101 66.3463 10.5501C66.3463 8.46374 67.4015 6.84417 69.5138 5.69191C70.8277 4.97228 72.2297 4.61274 73.7187 4.61274C76.2783 4.61274 78.3027 5.45853 79.7916 7.14957C80.6561 8.15726 81.0894 9.29057 81.0894 10.5501H85.2422C85.2422 7.5638 83.9965 5.0443 81.505 2.99318C79.2896 1.19439 76.6939 0.294449 73.7187 0.294449Z" fill="white"/>
</mask>
<g mask="url(#mask1)">
<path fill-rule="evenodd" clip-rule="evenodd" d="M165.81 0.294449L165.239 1.59021L151.742 33.975L150.495 36.9969H155.012L155.583 35.7017L167.159 7.90493L178.736 35.7017L179.307 36.9969H183.823L182.577 33.975L169.079 1.59021L168.508 0.294449H165.81ZM134.922 0.294449C130.769 0.294449 127.203 1.98657 124.228 5.36864C121.009 8.96677 119.4 13.3928 119.4 18.6457C119.4 23.8634 120.992 28.2716 124.176 31.8697C127.187 35.2528 130.769 36.9618 134.922 36.9969C138.659 36.9969 142.086 35.6297 145.201 32.8947C146.48 31.7441 147.485 30.5203 148.211 29.2246L144.577 27.0657C143.469 29.1174 141.67 30.6822 139.178 31.7614C137.759 32.3738 136.34 32.6792 134.922 32.6792C131.565 32.6792 128.761 31.1501 126.513 28.0913C124.54 25.3573 123.553 22.2075 123.553 18.6457C123.553 14.5077 124.799 11.0358 127.291 8.22928C129.471 5.85381 132.015 4.64902 134.922 4.61274C137.759 4.61274 140.285 5.62043 142.501 7.63527C143.366 8.46374 144.007 9.30844 144.422 10.1716L148.16 8.22928C146.913 5.71086 144.803 3.65974 141.827 2.07591C139.542 0.887909 137.24 0.294449 134.922 0.294449ZM102.789 0.294449C99.0505 0.294449 96.0403 1.59021 93.7561 4.18118C92.0953 6.08827 91.2636 8.21141 91.2636 10.5501C91.2636 13.7524 93.3577 16.4332 97.5464 18.5921C98.3412 18.9885 100.782 20.014 104.866 21.6682C108.221 23.036 110.194 24.3318 110.784 25.555C110.991 25.9508 111.095 26.3466 111.095 26.7419C111.095 28.721 109.969 30.3043 107.72 31.4917C106.197 32.2839 104.555 32.6792 102.789 32.6792C99.9853 32.6792 97.736 31.8518 96.0403 30.1965C95.0357 29.1525 94.5165 28.0019 94.4831 26.7419H90.3303C90.3303 29.5489 91.5584 31.978 94.0155 34.0286C96.4725 36.0077 99.3963 36.9969 102.789 36.9969C106.7 36.9969 109.918 35.7017 112.445 33.1108C114.278 31.1679 115.213 29.0453 115.248 26.7419C115.248 23.5038 113.153 20.7872 108.967 18.5921C108.136 18.1963 105.661 17.1534 101.543 15.4613C98.2203 14.1309 96.2642 12.8703 95.6768 11.6828C95.5034 11.2875 95.4164 10.9101 95.4164 10.5501C95.4164 8.46374 96.4726 6.84417 98.5844 5.69191C99.8983 4.97228 101.301 4.61274 102.789 4.61274C105.349 4.61274 107.374 5.45853 108.862 7.14957C109.727 8.15726 110.161 9.29057 110.161 10.5501H114.313C114.313 7.5638 113.067 5.0443 110.576 2.99318C108.36 1.19439 105.765 0.294449 102.789 0.294449ZM73.7187 0.294449C69.9799 0.294449 66.9697 1.59021 64.6855 4.18118C63.0242 6.08827 62.1935 8.21141 62.1935 10.5501C62.1935 13.7524 64.2866 16.4332 68.4753 18.5921C69.2706 18.9885 71.711 20.014 75.7951 21.6682C79.151 23.036 81.1238 24.3318 81.7128 25.555C81.9196 25.9508 82.0242 26.3466 82.0242 26.7419C82.0242 28.721 80.8988 30.3043 78.6495 31.4917C77.1262 32.2839 75.4836 32.6792 73.7187 32.6792C70.9152 32.6792 68.6649 31.8518 66.9697 30.1965C65.9651 29.1525 65.4459 28.0019 65.4126 26.7419H61.2598C61.2598 29.5489 62.4873 31.978 64.9449 34.0286C67.4015 36.0077 70.3257 36.9969 73.7187 36.9969C77.6288 36.9969 80.8472 35.7017 83.3741 33.1108C85.2078 31.1679 86.1416 29.0453 86.1775 26.7419C86.1775 23.5038 84.0824 20.7872 79.8963 18.5921C79.0646 18.1963 76.5908 17.1534 72.4719 15.4613C69.1492 14.1309 67.1942 12.8703 66.6057 11.6828C66.4323 11.2875 66.3463 10.9101 66.3463 10.5501C66.3463 8.46374 67.4015 6.84417 69.5138 5.69191C70.8277 4.97228 72.2297 4.61274 73.7187 4.61274C76.2783 4.61274 78.3027 5.45853 79.7916 7.14957C80.6561 8.15726 81.0894 9.29057 81.0894 10.5501H85.2422C85.2422 7.5638 83.9965 5.0443 81.505 2.99318C79.2896 1.19439 76.6939 0.294449 73.7187 0.294449Z" fill="url(#paint1_linear)"/>
</g>
<mask id="mask2" mask-type="alpha" maskUnits="userSpaceOnUse" x="62" y="45" width="4" height="7">
<path d="M62.0857 45.8072H65.6413V51.8047H62.0857V45.8072Z" fill="white"/>
</mask>
<g mask="url(#mask2)">
<path fill-rule="evenodd" clip-rule="evenodd" d="M65.2983 46.5047C65.1341 46.4216 64.9318 46.3439 64.6925 46.2722C64.4532 46.2 64.2144 46.1641 63.9751 46.1641C63.6028 46.1641 63.3057 46.2614 63.082 46.4547C62.8589 46.6492 62.7468 46.8926 62.7468 47.186C62.7468 47.4076 62.8109 47.5918 62.9386 47.7385C63.0664 47.8851 63.2337 48.0101 63.4407 48.1122C63.6482 48.2143 63.8687 48.3127 64.1023 48.4072C64.2884 48.4795 64.4735 48.5593 64.657 48.6479C64.84 48.7364 65.0058 48.8451 65.1549 48.9722C65.304 49.0993 65.4218 49.2569 65.5094 49.4454C65.597 49.6339 65.6413 49.8664 65.6413 50.1434C65.6413 50.4705 65.5668 50.7595 65.4177 51.0116C65.2691 51.2636 65.0621 51.4587 64.7962 51.5972C64.5303 51.7357 64.2222 51.8047 63.8713 51.8047C63.5898 51.8047 63.3328 51.7683 63.1018 51.6971C62.8709 51.6249 62.6686 51.5407 62.496 51.4434C62.3234 51.3468 62.1863 51.2647 62.0857 51.1984L62.2687 50.866C62.3855 50.9545 62.5283 51.0431 62.6957 51.1322C62.863 51.2207 63.045 51.2951 63.2415 51.3565C63.4381 51.4174 63.6352 51.4478 63.8317 51.4478C64.0601 51.4478 64.2822 51.4005 64.4975 51.3066C64.7123 51.212 64.8906 51.0691 65.0313 50.8785C65.1721 50.6872 65.243 50.4455 65.243 50.1516C65.243 49.8691 65.1763 49.6404 65.0433 49.466C64.9104 49.2922 64.7404 49.1493 64.5329 49.0385C64.326 48.9276 64.1054 48.8277 63.8713 48.7391C63.6904 48.6674 63.5095 48.5914 63.3296 48.511C63.1487 48.4306 62.984 48.3339 62.8349 48.2203C62.6858 48.1068 62.5679 47.9693 62.4804 47.8085C62.3928 47.6483 62.349 47.4549 62.349 47.2273C62.349 46.9453 62.4178 46.6987 62.556 46.4884C62.6941 46.2776 62.8813 46.113 63.118 45.9941C63.3542 45.8751 63.6242 45.8126 63.9271 45.8072C64.193 45.8072 64.4626 45.843 64.7363 45.9148C65.01 45.987 65.2477 46.0783 65.45 46.1891L65.2983 46.5047Z" fill="black"/>
</g>
<path fill-rule="evenodd" clip-rule="evenodd" d="M67.3391 47.0612H67.7218V48.5318H68.6868V48.8474H67.7218V51.7381H67.3391V48.8474H66.6775V48.5318H67.3391V47.0612Z" fill="black"/>
<path fill-rule="evenodd" clip-rule="evenodd" d="M71.1101 51.4726C71.3437 51.4726 71.5554 51.4215 71.7441 51.3188C71.9323 51.2162 72.0851 51.0738 72.2024 50.8913C72.3192 50.7082 72.3854 50.498 72.4021 50.26V49.7945C72.3593 49.5896 72.2754 49.4066 72.1502 49.2458C72.0256 49.0855 71.8729 48.9584 71.692 48.8639C71.5116 48.7699 71.315 48.7226 71.1018 48.7226C70.8682 48.7226 70.6529 48.7797 70.4563 48.8932C70.2598 49.0067 70.1029 49.1659 69.9861 49.3707C69.8688 49.5761 69.8109 49.8167 69.8109 50.0938C69.8109 50.3486 69.8688 50.5795 69.9861 50.787C70.1029 50.9951 70.2608 51.1613 70.4605 51.2857C70.6597 51.4101 70.876 51.4726 71.1101 51.4726ZM71.0304 51.8045C70.7327 51.8045 70.4631 51.7339 70.2212 51.5932C69.9793 51.4519 69.788 51.2542 69.6472 50.9989C69.5064 50.7441 69.436 50.448 69.436 50.1101C69.436 49.7499 69.5106 49.4413 69.6592 49.1838C69.8078 48.9263 70.0101 48.7297 70.265 48.5939C70.5199 48.4586 70.8098 48.3907 71.1341 48.3907C71.4104 48.3907 71.6722 48.4765 71.9193 48.6482C72.1664 48.8199 72.3431 49.0361 72.4495 49.2958L72.3937 49.4125L72.4417 48.4901H72.7764V51.7382H72.4021V50.7332L72.4813 50.8826C72.4443 50.9934 72.3807 51.1026 72.29 51.2113C72.1998 51.3188 72.0892 51.4182 71.9594 51.5095C71.8291 51.6013 71.6857 51.673 71.5288 51.7263C71.3718 51.7784 71.2061 51.8045 71.0304 51.8045Z" fill="black"/>
<path fill-rule="evenodd" clip-rule="evenodd" d="M74.626 47.0612H75.0086V48.5318H75.9737V48.8474H75.0086V51.7381H74.626V48.8474H73.9644V48.5318H74.626V47.0612Z" fill="black"/>
<mask id="mask3" mask-type="alpha" maskUnits="userSpaceOnUse" x="-1" y="0" width="188" height="52">
<path d="M-0.000244141 51.8047H186.915V0.119461H-0.000244141V51.8047Z" fill="white"/>
</mask>
<g mask="url(#mask3)">
<path fill-rule="evenodd" clip-rule="evenodd" d="M77.0256 51.7379H77.4004V48.4898H77.0256V51.7379ZM76.9458 47.2941C76.9458 47.2169 76.975 47.1517 77.0334 47.099C77.0918 47.0463 77.1554 47.0197 77.2247 47.0197C77.2993 47.0197 77.3629 47.0463 77.4161 47.099C77.4692 47.1517 77.4958 47.2169 77.4958 47.2941C77.4958 47.3772 77.4692 47.4451 77.4161 47.4972C77.3629 47.5505 77.2993 47.5765 77.2247 47.5765C77.1554 47.5765 77.0918 47.5488 77.0334 47.4929C76.975 47.438 76.9458 47.3717 76.9458 47.2941Z" fill="black"/>
<path fill-rule="evenodd" clip-rule="evenodd" d="M79.0111 50.1018C79.0111 50.3571 79.0679 50.588 79.1821 50.7955C79.2968 51.0031 79.4506 51.1682 79.6445 51.2899C79.8385 51.4116 80.0554 51.4724 80.2947 51.4724C80.5334 51.4724 80.7503 51.4116 80.9443 51.2899C81.1382 51.1682 81.292 51.0031 81.4067 50.7955C81.5204 50.588 81.5782 50.3571 81.5782 50.1018C81.5782 49.847 81.5204 49.6156 81.4067 49.4086C81.292 49.2006 81.1382 49.0343 80.9443 48.9099C80.7503 48.785 80.5334 48.723 80.2947 48.723C80.0496 48.723 79.8307 48.7882 79.6367 48.9181C79.4428 49.0484 79.29 49.2185 79.1779 49.4293C79.0663 49.6395 79.0111 49.8644 79.0111 50.1018ZM78.6362 50.0937C78.6362 49.778 78.7092 49.4901 78.8552 49.2299C79.0012 48.9697 79.2009 48.7632 79.4537 48.6111C79.7055 48.459 79.9886 48.3824 80.3025 48.3824C80.6216 48.3824 80.9057 48.459 81.1554 48.6111C81.4052 48.7632 81.6022 48.9697 81.7451 49.2299C81.889 49.4901 81.9604 49.778 81.9604 50.0937C81.9604 50.4093 81.889 50.6978 81.7451 50.9574C81.6022 51.2182 81.4041 51.4246 81.1513 51.5767C80.8989 51.7289 80.6158 51.8049 80.3025 51.8049C79.9834 51.8049 79.6988 51.7316 79.4495 51.5843C79.1993 51.4382 79.0012 51.2361 78.8552 50.9781C78.7092 50.7211 78.6362 50.4261 78.6362 50.0937Z" fill="black"/>
<path fill-rule="evenodd" clip-rule="evenodd" d="M83.5234 48.4901L83.563 49.5119L83.5151 49.3131C83.6053 49.0301 83.7768 48.8073 84.0297 48.6438C84.282 48.4803 84.562 48.3988 84.8706 48.3988C85.1631 48.3988 85.3998 48.489 85.5802 48.6688C85.7606 48.8486 85.8539 49.0833 85.8591 49.3707V51.7382H85.4764V49.4788C85.4707 49.2686 85.4071 49.0936 85.2851 48.9551C85.1631 48.8177 84.9848 48.7454 84.7507 48.7394C84.5437 48.7394 84.3498 48.7927 84.1689 48.8975C83.9885 49.0024 83.843 49.1496 83.7346 49.3381C83.6251 49.5261 83.5714 49.745 83.5714 49.9943V51.7382H83.1965V48.4901H83.5234Z" fill="black"/>
<path fill-rule="evenodd" clip-rule="evenodd" d="M92.986 46.5047C92.8218 46.4216 92.6195 46.3439 92.3802 46.2722C92.1409 46.1999 91.9021 46.1641 91.6628 46.1641C91.2906 46.1641 90.9934 46.2613 90.7697 46.4547C90.5466 46.6492 90.4345 46.8926 90.4345 47.1859C90.4345 47.4076 90.4986 47.5917 90.6264 47.7384C90.7541 47.8851 90.9215 48.0101 91.1284 48.1122C91.3359 48.2143 91.5565 48.3126 91.79 48.4072C91.9762 48.4794 92.1612 48.5593 92.3448 48.6478C92.5278 48.7364 92.6936 48.845 92.8427 48.9722C92.9918 49.0993 93.1096 49.2568 93.1972 49.4453C93.2848 49.6338 93.3291 49.8664 93.3291 50.1434C93.3291 50.4705 93.2545 50.7595 93.1054 51.0115C92.9568 51.2636 92.7499 51.4586 92.484 51.5972C92.2181 51.7357 91.91 51.8047 91.5591 51.8047C91.2775 51.8047 91.0205 51.7683 90.7896 51.6971C90.5586 51.6249 90.3563 51.5407 90.1837 51.4434C90.0112 51.3467 89.8741 51.2647 89.7734 51.1984L89.9564 50.8659C90.0732 50.9545 90.2161 51.043 90.3834 51.1321C90.5508 51.2207 90.7327 51.2951 90.9293 51.3565C91.1258 51.4173 91.3229 51.4478 91.5195 51.4478C91.7478 51.4478 91.9699 51.4005 92.1852 51.3065C92.4 51.212 92.5783 51.0691 92.7191 50.8784C92.8599 50.6872 92.9308 50.4455 92.9308 50.1516C92.9308 49.8691 92.864 49.6404 92.7311 49.466C92.5981 49.2921 92.4282 49.1493 92.2207 49.0384C92.0137 48.9276 91.7932 48.8277 91.5591 48.7391C91.3782 48.6674 91.1973 48.5913 91.0174 48.5109C90.8365 48.4305 90.6717 48.3338 90.5226 48.2203C90.3735 48.1068 90.2557 47.9693 90.1681 47.8085C90.0805 47.6482 90.0367 47.4548 90.0367 47.2272C90.0367 46.9453 90.1055 46.6986 90.2437 46.4884C90.3819 46.2776 90.569 46.113 90.8057 45.994C91.0419 45.8751 91.312 45.8126 91.6149 45.8072C91.8808 45.8072 92.1503 45.843 92.424 45.9147C92.6977 45.987 92.9355 46.0782 93.1377 46.1891L92.986 46.5047Z" fill="black"/>
<path fill-rule="evenodd" clip-rule="evenodd" d="M96.0874 51.4726C96.321 51.4726 96.5326 51.4215 96.7214 51.3188C96.9096 51.2162 97.0623 51.0738 97.1796 50.8913C97.2964 50.7082 97.3626 50.498 97.3793 50.26V49.7945C97.3366 49.5896 97.2526 49.4066 97.1275 49.2458C97.0029 49.0855 96.8501 48.9584 96.6692 48.8639C96.4888 48.7699 96.2923 48.7226 96.0791 48.7226C95.8455 48.7226 95.6302 48.7797 95.4336 48.8932C95.2371 49.0067 95.0801 49.1659 94.9634 49.3707C94.8461 49.5761 94.7882 49.8167 94.7882 50.0938C94.7882 50.3486 94.8461 50.5795 94.9634 50.787C95.0801 50.9951 95.2381 51.1613 95.4378 51.2857C95.6369 51.4101 95.8533 51.4726 96.0874 51.4726ZM96.0076 51.8045C95.7099 51.8045 95.4404 51.7339 95.1985 51.5932C94.9566 51.4519 94.7652 51.2542 94.6245 50.9989C94.4837 50.7441 94.4133 50.448 94.4133 50.1101C94.4133 49.7499 94.4879 49.4413 94.6365 49.1838C94.7851 48.9263 94.9873 48.7297 95.2423 48.5939C95.4972 48.4586 95.7871 48.3907 96.1114 48.3907C96.3877 48.3907 96.6494 48.4765 96.8965 48.6482C97.1437 48.8199 97.3204 49.0361 97.4268 49.2958L97.371 49.4125L97.4189 48.4901H97.7536V51.7382H97.3793V50.7332L97.4586 50.8826C97.4215 50.9934 97.3579 51.1026 97.2672 51.2113C97.177 51.3188 97.0665 51.4182 96.9367 51.5095C96.8063 51.6013 96.663 51.673 96.506 51.7263C96.3491 51.7784 96.1833 51.8045 96.0076 51.8045Z" fill="black"/>
<path fill-rule="evenodd" clip-rule="evenodd" d="M99.6191 48.4901L99.6587 49.5119L99.6108 49.3131C99.701 49.0301 99.8725 48.8073 100.125 48.6438C100.378 48.4803 100.658 48.3988 100.966 48.3988C101.259 48.3988 101.495 48.489 101.676 48.6688C101.856 48.8486 101.95 49.0833 101.955 49.3707V51.7382H101.572V49.4788C101.566 49.2686 101.503 49.0936 101.381 48.9551C101.259 48.8177 101.08 48.7454 100.846 48.7394C100.639 48.7394 100.445 48.7927 100.265 48.8975C100.084 49.0024 99.9387 49.1496 99.8303 49.3381C99.7208 49.5261 99.6671 49.745 99.6671 49.9943V51.7382H99.2922V48.4901H99.6191Z" fill="black"/>
<path fill-rule="evenodd" clip-rule="evenodd" d="M103.494 51.7379H103.869V48.4898H103.494V51.7379ZM103.414 47.2941C103.414 47.2169 103.443 47.1517 103.502 47.099C103.56 47.0463 103.624 47.0197 103.693 47.0197C103.767 47.0197 103.831 47.0463 103.884 47.099C103.938 47.1517 103.964 47.2169 103.964 47.2941C103.964 47.3772 103.938 47.4451 103.884 47.4972C103.831 47.5505 103.767 47.5765 103.693 47.5765C103.624 47.5765 103.56 47.5488 103.502 47.4929C103.443 47.438 103.414 47.3717 103.414 47.2941Z" fill="black"/>
<path fill-rule="evenodd" clip-rule="evenodd" d="M105.718 47.0612H106.1V48.5318H107.065V48.8474H106.1V51.7381H105.718V48.8474H105.056V48.5318H105.718V47.0612Z" fill="black"/>
<path fill-rule="evenodd" clip-rule="evenodd" d="M109.489 51.4726C109.723 51.4726 109.934 51.4215 110.123 51.3188C110.311 51.2162 110.464 51.0738 110.581 50.8913C110.698 50.7082 110.764 50.498 110.781 50.26V49.7945C110.738 49.5896 110.654 49.4066 110.529 49.2458C110.405 49.0855 110.252 48.9584 110.071 48.8639C109.89 48.7699 109.694 48.7226 109.481 48.7226C109.247 48.7226 109.032 48.7797 108.835 48.8932C108.639 49.0067 108.482 49.1659 108.365 49.3707C108.248 49.5761 108.19 49.8167 108.19 50.0938C108.19 50.3486 108.248 50.5795 108.365 50.787C108.482 50.9951 108.64 51.1613 108.839 51.2857C109.039 51.4101 109.255 51.4726 109.489 51.4726ZM109.409 51.8045C109.112 51.8045 108.842 51.7339 108.6 51.5932C108.358 51.4519 108.167 51.2542 108.026 50.9989C107.885 50.7441 107.815 50.448 107.815 50.1101C107.815 49.7499 107.89 49.4413 108.038 49.1838C108.187 48.9263 108.389 48.7297 108.644 48.5939C108.899 48.4586 109.189 48.3907 109.513 48.3907C109.789 48.3907 110.051 48.4765 110.298 48.6482C110.545 48.8199 110.722 49.0361 110.828 49.2958L110.773 49.4125L110.821 48.4901H111.155V51.7382H110.781V50.7332L110.86 50.8826C110.823 50.9934 110.76 51.1026 110.669 51.2113C110.579 51.3188 110.468 51.4182 110.338 51.5095C110.208 51.6013 110.065 51.673 109.908 51.7263C109.751 51.7784 109.585 51.8045 109.409 51.8045Z" fill="black"/>
<path fill-rule="evenodd" clip-rule="evenodd" d="M112.694 51.7379H113.069V48.4898H112.694V51.7379ZM112.614 47.2941C112.614 47.2169 112.643 47.1517 112.701 47.099C112.76 47.0463 112.824 47.0197 112.893 47.0197C112.967 47.0197 113.031 47.0463 113.085 47.099C113.137 47.1517 113.164 47.2169 113.164 47.2941C113.164 47.3772 113.137 47.4451 113.085 47.4972C113.031 47.5505 112.967 47.5765 112.893 47.5765C112.824 47.5765 112.76 47.5488 112.701 47.4929C112.643 47.438 112.614 47.3717 112.614 47.2941Z" fill="black"/>
<path fill-rule="evenodd" clip-rule="evenodd" d="M114.934 48.4901L114.974 49.4875L114.926 49.3625C114.995 49.1632 115.104 48.9915 115.253 48.8475C115.401 48.7036 115.568 48.5927 115.751 48.5151C115.935 48.4374 116.111 48.3988 116.281 48.3988L116.266 48.7813C116.026 48.7813 115.809 48.8367 115.615 48.9475C115.422 49.0583 115.268 49.2061 115.153 49.3913C115.039 49.5771 114.982 49.7863 114.982 50.0188V51.7382H114.607V48.4901H114.934Z" fill="black"/>
<path fill-rule="evenodd" clip-rule="evenodd" d="M118.681 51.8046C118.357 51.8046 118.069 51.7297 117.82 51.5803C117.57 51.4314 117.374 51.2277 117.234 50.9702C117.093 50.7122 117.022 50.4231 117.022 50.1015C117.022 49.7859 117.097 49.4985 117.246 49.2378C117.394 48.9775 117.595 48.77 117.847 48.6147C118.1 48.4598 118.381 48.3821 118.689 48.3821C119.061 48.3821 119.373 48.4957 119.626 48.7228C119.878 48.9498 120.06 49.2459 120.171 49.6115L117.445 50.7078L117.333 50.4259L119.828 49.4127L119.749 49.5289C119.658 49.3068 119.522 49.1161 119.338 48.9553C119.155 48.795 118.931 48.7146 118.665 48.7146C118.426 48.7146 118.211 48.7755 118.019 48.8971C117.827 49.0188 117.675 49.1829 117.561 49.3877C117.446 49.5925 117.389 49.8245 117.389 50.0852C117.389 50.3286 117.444 50.5557 117.553 50.7665C117.662 50.9773 117.814 51.1457 118.011 51.2728C118.208 51.4005 118.433 51.464 118.689 51.464C118.859 51.464 119.022 51.4314 119.179 51.3641C119.336 51.2978 119.475 51.2119 119.597 51.1071L119.789 51.389C119.64 51.5113 119.469 51.6112 119.275 51.6884C119.081 51.7661 118.883 51.8046 118.681 51.8046Z" fill="black"/>
<path fill-rule="evenodd" clip-rule="evenodd" d="M124.541 46.5797H124.955L125.617 47.6847H125.346L124.541 46.5797ZM125.266 51.4728C125.5 51.4728 125.711 51.4217 125.9 51.319C126.089 51.2164 126.241 51.0735 126.358 50.8915C126.475 50.7084 126.542 50.4982 126.558 50.2597V49.7947C126.515 49.5899 126.432 49.4068 126.306 49.246C126.181 49.0857 126.029 48.9586 125.848 48.8641C125.667 48.7701 125.471 48.7228 125.258 48.7228C125.024 48.7228 124.809 48.7799 124.613 48.8934C124.416 49.0069 124.259 49.1661 124.142 49.3709C124.025 49.5763 123.967 49.8169 123.967 50.094C123.967 50.3482 124.025 50.5797 124.142 50.7872C124.259 50.9953 124.417 51.1615 124.617 51.2859C124.815 51.4103 125.032 51.4728 125.266 51.4728ZM125.186 51.8047C124.889 51.8047 124.619 51.7341 124.377 51.5934C124.136 51.4521 123.944 51.2538 123.803 50.9991C123.662 50.7443 123.592 50.4482 123.592 50.1103C123.592 49.7501 123.666 49.4415 123.815 49.184C123.964 48.9265 124.166 48.7299 124.421 48.5941C124.676 48.4588 124.966 48.3909 125.29 48.3909C125.567 48.3909 125.828 48.4767 126.075 48.6484C126.323 48.8201 126.499 49.0357 126.606 49.296L126.55 49.4128L126.597 48.4903H126.933V51.7384H126.558V50.7334L126.637 50.8828C126.6 50.9936 126.536 51.1028 126.446 51.2109C126.355 51.319 126.245 51.4184 126.116 51.5097C125.985 51.6015 125.841 51.6732 125.684 51.7265C125.528 51.7786 125.362 51.8047 125.186 51.8047Z" fill="black"/>
<path fill-rule="evenodd" clip-rule="evenodd" d="M135.295 51.3477C135.173 51.4254 135.032 51.4998 134.872 51.5721C134.713 51.6444 134.538 51.7008 134.347 51.7427C134.155 51.784 133.948 51.8046 133.725 51.8046C133.294 51.8046 132.904 51.7258 132.553 51.5678C132.202 51.4097 131.902 51.194 131.652 50.9202C131.402 50.6459 131.209 50.3302 131.074 49.9733C130.939 49.6158 130.871 49.235 130.871 48.8303C130.871 48.3984 130.942 47.9969 131.086 47.6259C131.229 47.2554 131.431 46.9311 131.692 46.654C131.952 46.3775 132.255 46.1613 132.601 46.0065C132.946 45.8511 133.321 45.7734 133.725 45.7734C134.022 45.7734 134.301 45.8147 134.562 45.8984C134.822 45.9815 135.059 46.089 135.271 46.2221L135.104 46.5959C134.918 46.4742 134.708 46.3721 134.474 46.2884C134.24 46.2053 133.993 46.164 133.733 46.164C133.398 46.164 133.081 46.2319 132.784 46.3677C132.486 46.5035 132.224 46.6915 131.999 46.9322C131.773 47.1734 131.596 47.4548 131.468 47.7758C131.341 48.0969 131.277 48.443 131.277 48.814C131.277 49.1682 131.334 49.5034 131.449 49.8196C131.563 50.1352 131.727 50.4117 131.943 50.6502C132.158 50.8881 132.417 51.075 132.721 51.2108C133.024 51.3467 133.36 51.414 133.733 51.414C134.009 51.414 134.263 51.3744 134.494 51.2934C134.725 51.2136 134.931 51.112 135.112 50.9908L135.295 51.3477Z" fill="black"/>
<path fill-rule="evenodd" clip-rule="evenodd" d="M136.739 50.1018C136.739 50.3571 136.795 50.588 136.91 50.7955C137.024 51.0031 137.178 51.1682 137.372 51.2899C137.566 51.4116 137.783 51.4724 138.022 51.4724C138.261 51.4724 138.478 51.4116 138.672 51.2899C138.866 51.1682 139.02 51.0031 139.134 50.7955C139.248 50.588 139.306 50.3571 139.306 50.1018C139.306 49.847 139.248 49.6156 139.134 49.4086C139.02 49.2006 138.866 49.0343 138.672 48.9099C138.478 48.785 138.261 48.723 138.022 48.723C137.777 48.723 137.558 48.7882 137.364 48.9181C137.17 49.0484 137.018 49.2185 136.905 49.4293C136.794 49.6395 136.739 49.8644 136.739 50.1018ZM136.364 50.0937C136.364 49.778 136.437 49.4901 136.583 49.2299C136.729 48.9697 136.928 48.7632 137.181 48.6111C137.433 48.459 137.716 48.3824 138.03 48.3824C138.349 48.3824 138.633 48.459 138.883 48.6111C139.133 48.7632 139.33 48.9697 139.473 49.2299C139.617 49.4901 139.688 49.778 139.688 50.0937C139.688 50.4093 139.617 50.6978 139.473 50.9574C139.33 51.2182 139.132 51.4246 138.879 51.5767C138.626 51.7289 138.343 51.8049 138.03 51.8049C137.711 51.8049 137.426 51.7316 137.177 51.5843C136.927 51.4382 136.729 51.2361 136.583 50.9781C136.437 50.7211 136.364 50.4261 136.364 50.0937Z" fill="black"/>
<path fill-rule="evenodd" clip-rule="evenodd" d="M141.25 48.4901L141.29 49.5119L141.242 49.3131C141.332 49.0301 141.504 48.8073 141.757 48.6438C142.009 48.4803 142.289 48.3988 142.598 48.3988C142.89 48.3988 143.127 48.489 143.307 48.6688C143.488 48.8486 143.581 49.0833 143.586 49.3707V51.7382H143.203V49.4788C143.198 49.2686 143.134 49.0936 143.012 48.9551C142.89 48.8177 142.712 48.7454 142.478 48.7394C142.271 48.7394 142.077 48.7927 141.896 48.8975C141.716 49.0024 141.57 49.1496 141.462 49.3381C141.352 49.5261 141.298 49.745 141.298 49.9943V51.7382H140.924V48.4901H141.25Z" fill="black"/>
<path fill-rule="evenodd" clip-rule="evenodd" d="M145.436 47.0612H145.818V48.5318H146.783V48.8474H145.818V51.7381H145.436V48.8474H144.774V48.5318H145.436V47.0612Z" fill="black"/>
<path fill-rule="evenodd" clip-rule="evenodd" d="M148.163 48.4901L148.202 49.4875L148.154 49.3625C148.224 49.1632 148.333 48.9915 148.481 48.8475C148.63 48.7036 148.796 48.5927 148.98 48.5151C149.163 48.4374 149.34 48.3988 149.51 48.3988L149.494 48.7813C149.255 48.7813 149.038 48.8367 148.844 48.9475C148.65 49.0583 148.496 49.2061 148.382 49.3913C148.267 49.5771 148.211 49.7863 148.211 50.0188V51.7382H147.836V48.4901H148.163Z" fill="black"/>
<path fill-rule="evenodd" clip-rule="evenodd" d="M152.715 47.6846L151.846 46.6709L152.013 46.6459L151.137 47.6846H150.762L151.918 46.3634H151.926L153.09 47.6846H152.715ZM150.626 50.1016C150.626 50.3569 150.684 50.5878 150.797 50.7958C150.912 51.0028 151.066 51.168 151.26 51.2897C151.454 51.4113 151.671 51.4727 151.91 51.4727C152.149 51.4727 152.366 51.4113 152.56 51.2897C152.753 51.168 152.907 51.0028 153.022 50.7958C153.136 50.5878 153.194 50.3569 153.194 50.1016C153.194 49.8468 153.136 49.6159 153.022 49.4084C152.907 49.2003 152.753 49.0341 152.56 48.9097C152.366 48.7847 152.149 48.7228 151.91 48.7228C151.665 48.7228 151.446 48.788 151.252 48.9184C151.058 49.0482 150.905 49.2182 150.793 49.429C150.682 49.6398 150.626 49.8642 150.626 50.1016ZM150.251 50.094C150.251 49.7783 150.324 49.4899 150.47 49.2296C150.617 48.9694 150.816 48.763 151.069 48.6109C151.321 48.4588 151.604 48.3822 151.918 48.3822C152.237 48.3822 152.521 48.4588 152.771 48.6109C153.02 48.763 153.217 48.9694 153.36 49.2296C153.504 49.4899 153.576 49.7783 153.576 50.094C153.576 50.4096 153.504 50.6975 153.36 50.9572C153.217 51.2179 153.019 51.4244 152.767 51.5765C152.514 51.7286 152.231 51.8047 151.918 51.8047C151.599 51.8047 151.314 51.7313 151.065 51.5846C150.815 51.438 150.617 51.2359 150.47 50.9778C150.324 50.7209 150.251 50.4259 150.251 50.094Z" fill="black"/>
<path fill-rule="evenodd" clip-rule="evenodd" d="M154.812 51.7383H155.187V45.4246H154.812V51.7383Z" fill="black"/>
<path fill-rule="evenodd" clip-rule="evenodd" d="M158.08 51.8046C157.756 51.8046 157.469 51.7297 157.219 51.5803C156.969 51.4314 156.774 51.2277 156.634 50.9702C156.492 50.7122 156.422 50.4231 156.422 50.1015C156.422 49.7859 156.496 49.4985 156.645 49.2378C156.794 48.9775 156.994 48.77 157.247 48.6147C157.5 48.4598 157.78 48.3821 158.088 48.3821C158.46 48.3821 158.772 48.4957 159.025 48.7228C159.277 48.9498 159.46 49.2459 159.571 49.6115L156.844 50.7078L156.733 50.4259L159.228 49.4127L159.149 49.5289C159.058 49.3068 158.921 49.1161 158.738 48.9553C158.554 48.795 158.33 48.7146 158.064 48.7146C157.825 48.7146 157.61 48.7755 157.418 48.8971C157.227 49.0188 157.074 49.1829 156.96 49.3877C156.846 49.5925 156.788 49.8245 156.788 50.0852C156.788 50.3286 156.843 50.5557 156.952 50.7665C157.061 50.9773 157.214 51.1457 157.41 51.2728C157.607 51.4005 157.833 51.464 158.088 51.464C158.258 51.464 158.421 51.4314 158.578 51.3641C158.735 51.2978 158.874 51.2119 158.997 51.1071L159.188 51.389C159.04 51.5113 158.868 51.6112 158.674 51.6884C158.48 51.7661 158.282 51.8046 158.08 51.8046Z" fill="black"/>
<path fill-rule="evenodd" clip-rule="evenodd" d="M164.665 51.4639C164.904 51.4639 165.119 51.4096 165.31 51.302C165.502 51.1939 165.656 51.0472 165.773 50.862C165.89 50.6762 165.957 50.467 165.973 50.2345V49.8195C165.936 49.6087 165.853 49.4202 165.725 49.2545C165.598 49.0883 165.443 48.9568 165.263 48.8595C165.082 48.7628 164.883 48.714 164.665 48.714C164.426 48.714 164.208 48.7726 164.011 48.8889C163.815 49.0051 163.658 49.1659 163.541 49.3702C163.424 49.5756 163.366 49.814 163.366 50.0851C163.366 50.3399 163.424 50.5708 163.541 50.7783C163.658 50.9864 163.816 51.1526 164.015 51.277C164.215 51.402 164.431 51.4639 164.665 51.4639ZM164.569 51.8045C164.277 51.8045 164.011 51.7312 163.772 51.5845C163.533 51.4378 163.343 51.2341 163.202 50.9739C163.061 50.7137 162.991 50.4203 162.991 50.0938C162.991 49.7445 163.063 49.4425 163.206 49.1882C163.35 48.9334 163.545 48.7362 163.792 48.5982C164.039 48.4597 164.312 48.3907 164.609 48.3907C164.907 48.3907 165.19 48.4706 165.458 48.6314C165.727 48.7922 165.922 49.0024 166.045 49.2626L165.98 49.4452V45.4246H166.355V51.7382H165.973V50.7414L166.052 50.9239C165.919 51.1841 165.72 51.3965 165.454 51.5595C165.188 51.723 164.893 51.8045 164.569 51.8045Z" fill="black"/>
<path fill-rule="evenodd" clip-rule="evenodd" d="M167.575 46.8453C167.687 46.7345 167.77 46.5906 167.826 46.4135C167.882 46.2364 167.891 46.0506 167.854 45.8572L168.197 45.7985C168.229 45.9484 168.229 46.0989 168.197 46.251C168.165 46.4042 168.112 46.546 168.037 46.6791C167.963 46.8117 167.87 46.923 167.758 47.0116L167.575 46.8453Z" fill="black"/>
<path fill-rule="evenodd" clip-rule="evenodd" d="M170.764 51.4726C170.998 51.4726 171.21 51.4215 171.398 51.3188C171.587 51.2162 171.739 51.0738 171.857 50.8913C171.973 50.7082 172.04 50.498 172.056 50.26V49.7945C172.014 49.5896 171.93 49.4066 171.805 49.2458C171.68 49.0855 171.527 48.9584 171.346 48.8639C171.166 48.7699 170.969 48.7226 170.756 48.7226C170.523 48.7226 170.307 48.7797 170.111 48.8932C169.914 49.0067 169.757 49.1659 169.64 49.3707C169.523 49.5761 169.465 49.8167 169.465 50.0938C169.465 50.3486 169.523 50.5795 169.64 50.787C169.757 50.9951 169.915 51.1613 170.115 51.2857C170.314 51.4101 170.53 51.4726 170.764 51.4726ZM170.685 51.8045C170.387 51.8045 170.117 51.7339 169.876 51.5932C169.634 51.4519 169.442 51.2542 169.301 50.9989C169.161 50.7441 169.09 50.448 169.09 50.1101C169.09 49.7499 169.165 49.4413 169.313 49.1838C169.462 48.9263 169.664 48.7297 169.919 48.5939C170.174 48.4586 170.464 48.3907 170.788 48.3907C171.065 48.3907 171.326 48.4765 171.574 48.6482C171.821 48.8199 171.997 49.0361 172.104 49.2958L172.048 49.4125L172.096 48.4901H172.431V51.7382H172.056V50.7332L172.136 50.8826C172.099 50.9934 172.035 51.1026 171.944 51.2113C171.854 51.3188 171.744 51.4182 171.614 51.5095C171.483 51.6013 171.34 51.673 171.183 51.7263C171.026 51.7784 170.86 51.8045 170.685 51.8045Z" fill="black"/>
<path fill-rule="evenodd" clip-rule="evenodd" d="M176.377 51.4228C176.233 51.545 176.071 51.6385 175.89 51.7053C175.709 51.7721 175.52 51.8047 175.324 51.8047C175.005 51.8047 174.721 51.7314 174.471 51.5847C174.221 51.438 174.024 51.237 173.881 50.9822C173.737 50.728 173.666 50.4373 173.666 50.1103C173.666 49.7833 173.74 49.4926 173.889 49.2384C174.038 48.9836 174.236 48.7826 174.483 48.6354C174.73 48.4892 175 48.4159 175.292 48.4159C175.51 48.4159 175.712 48.4485 175.898 48.5148C176.084 48.5821 176.246 48.6756 176.384 48.7978L176.185 49.0635C176.074 48.9695 175.943 48.8918 175.794 48.8309C175.646 48.7701 175.486 48.7397 175.316 48.7397C175.082 48.7397 174.868 48.8005 174.674 48.9222C174.48 49.0439 174.326 49.209 174.212 49.4166C174.098 49.6241 174.041 49.8555 174.041 50.1103C174.041 50.3597 174.098 50.5878 174.212 50.7959C174.326 51.0034 174.483 51.168 174.682 51.2897C174.882 51.4114 175.103 51.4728 175.348 51.4728C175.507 51.4728 175.656 51.4467 175.794 51.3935C175.932 51.3413 176.057 51.2707 176.169 51.1821L176.377 51.4228Z" fill="black"/>
<path fill-rule="evenodd" clip-rule="evenodd" d="M179.948 51.4228C179.805 51.545 179.642 51.6385 179.461 51.7053C179.281 51.7721 179.092 51.8047 178.896 51.8047C178.577 51.8047 178.292 51.7314 178.043 51.5847C177.793 51.438 177.596 51.237 177.453 50.9822C177.309 50.728 177.238 50.4373 177.238 50.1103C177.238 49.7833 177.312 49.4926 177.461 49.2384C177.61 48.9836 177.808 48.7826 178.055 48.6354C178.302 48.4892 178.571 48.4159 178.864 48.4159C179.082 48.4159 179.284 48.4485 179.47 48.5148C179.655 48.5821 179.818 48.6756 179.956 48.7978L179.757 49.0635C179.645 48.9695 179.515 48.8918 179.366 48.8309C179.217 48.7701 179.058 48.7397 178.888 48.7397C178.654 48.7397 178.44 48.8005 178.246 48.9222C178.052 49.0439 177.898 49.209 177.784 49.4166C177.669 49.6241 177.613 49.8555 177.613 50.1103C177.613 50.3597 177.669 50.5878 177.784 50.7959C177.898 51.0034 178.055 51.168 178.254 51.2897C178.454 51.4114 178.675 51.4728 178.92 51.4728C179.079 51.4728 179.228 51.4467 179.366 51.3935C179.504 51.3413 179.629 51.2707 179.741 51.1821L179.948 51.4228Z" fill="black"/>
<path fill-rule="evenodd" clip-rule="evenodd" d="M181.455 46.5797H181.869L182.531 47.6847H182.26L181.455 46.5797ZM182.467 51.8047C182.143 51.8047 181.856 51.7297 181.606 51.5803C181.357 51.4315 181.161 51.2278 181.02 50.9703C180.879 50.7122 180.809 50.4232 180.809 50.1016C180.809 49.786 180.883 49.4986 181.032 49.2384C181.181 48.9776 181.381 48.7701 181.634 48.6147C181.886 48.4599 182.167 48.3822 182.475 48.3822C182.847 48.3822 183.16 48.4957 183.412 48.7228C183.664 48.9499 183.847 49.246 183.958 49.6116L181.231 50.7084L181.12 50.4259L183.615 49.4128L183.535 49.529C183.445 49.3074 183.309 49.1161 183.125 48.9553C182.942 48.7951 182.717 48.7147 182.451 48.7147C182.212 48.7147 181.997 48.7755 181.806 48.8977C181.614 49.0189 181.462 49.183 181.347 49.3878C181.233 49.5926 181.176 49.8251 181.176 50.0853C181.176 50.3287 181.23 50.5558 181.339 50.7665C181.448 50.9773 181.601 51.1457 181.797 51.2734C181.994 51.4005 182.22 51.4641 182.475 51.4641C182.645 51.4641 182.809 51.4315 182.965 51.3647C183.122 51.2984 183.262 51.212 183.384 51.1072L183.575 51.3897C183.427 51.5113 183.255 51.6113 183.061 51.6884C182.867 51.7661 182.669 51.8047 182.467 51.8047Z" fill="black"/>
<path fill-rule="evenodd" clip-rule="evenodd" d="M185.848 51.8047C185.667 51.8047 185.478 51.7705 185.281 51.7015C185.085 51.6319 184.925 51.52 184.803 51.3641L184.978 51.1072C185.085 51.2234 185.211 51.3163 185.357 51.3859C185.503 51.4543 185.659 51.4891 185.824 51.4891C185.946 51.4891 186.061 51.4711 186.17 51.4347C186.279 51.3994 186.368 51.337 186.438 51.2484C186.507 51.1599 186.541 51.0409 186.541 50.8909C186.541 50.7361 186.5 50.6166 186.418 50.5335C186.336 50.4509 186.231 50.383 186.107 50.3303C185.982 50.2776 185.85 50.2298 185.712 50.1853C185.484 50.1076 185.296 50.0022 185.15 49.8691C185.004 49.736 184.93 49.548 184.93 49.3041C184.93 49.127 184.972 48.9722 185.055 48.8391C185.137 48.7065 185.25 48.6022 185.393 48.5278C185.537 48.4528 185.699 48.4159 185.88 48.4159C186.044 48.4159 186.207 48.4436 186.37 48.4985C186.532 48.5544 186.68 48.6479 186.813 48.7815L186.645 49.0548C186.56 48.9336 186.447 48.8505 186.306 48.8054C186.165 48.7614 186.041 48.737 185.935 48.7315C185.845 48.7315 185.751 48.7505 185.653 48.7891C185.554 48.8282 185.472 48.8847 185.405 48.9597C185.339 49.0341 185.305 49.133 185.305 49.2547C185.305 49.3818 185.34 49.4856 185.409 49.566C185.478 49.6464 185.567 49.711 185.676 49.761C185.785 49.811 185.898 49.8582 186.015 49.9022C186.169 49.9522 186.314 50.012 186.449 50.081C186.585 50.1505 186.697 50.2418 186.784 50.3553C186.872 50.4688 186.916 50.6193 186.916 50.8078C186.916 50.9963 186.876 51.1664 186.796 51.3185C186.717 51.4711 186.598 51.5901 186.442 51.6765C186.285 51.7618 186.087 51.8047 185.848 51.8047Z" fill="black"/>
</g>
</g>
<defs>
<linearGradient id="paint0_linear" x1="3.66026" y1="51.614" x2="47.5153" y2="0.842152" gradientUnits="userSpaceOnUse">
<stop stop-color="#00D1D1"/>
<stop offset="1" stop-color="#1177E4"/>
</linearGradient>
<linearGradient id="paint1_linear" x1="61.2594" y1="18.6459" x2="183.823" y2="18.6459" gradientUnits="userSpaceOnUse">
<stop stop-color="#1177E4"/>
<stop offset="1" stop-color="#00D1D1"/>
</linearGradient>
<clipPath id="clip0">
<rect width="187" height="52" fill="white"/>
</clipPath>
</defs>
</svg>
